# xmcd CD database file
#
# Track frame offsets:
#	150
#	23550
#	41400
#	65100
#	84600
#	105375
#	132675
#	152925
#	176925
#	197250
#	219675
#	243750
#	266100
#	288975
#
# Disc length: 4216 seconds
#
# Revision: 1
# Processed by: cddbd v1.5.1PL0 Copyright (c) Steve Scherf et al.
# Submitted via: freeDBTagger 0.1
#
DISCID=cc10760e
DTITLE=BEGIN - SINGLE daizensyuu DISC-2
DYEAR=2005
DGENRE=blues
TTITLE0=未来の君へ
TTITLE1=防波堤で見た景色
TTITLE2=愛を捨てないで
TTITLE3=涙そうそう
TTITLE4=風よ
TTITLE5=灯り
TTITLE6=ボトル二本とチョコレート
TTITLE7=島人の宝
TTITLE8=オジー自慢のオリオンビール
TTITLE9=その時生まれたもの
TTITLE10=いつまでも
TTITLE11=ユガフ島
TTITLE12=誓い
TTITLE13=君を見ている
EXTD=YEAR: 2005
EXTT0=
EXTT1=
EXTT2=
EXTT3=
EXTT4=
EXTT5=
EXTT6=
EXTT7=
EXTT8=
EXTT9=
EXTT10=
EXTT11=
EXTT12=
EXTT13=
PLAYORDER=
